<svg width="112" height="113" viewBox="0 0 112 113" fill="none" xmlns="http://www.w3.org/2000/svg">
<path d="M39.304 96.7178C47.4969 101.018 51.5933 103.167 56 103.167V56.5005L12.3108 33.5062C12.2464 33.6096 12.1833 33.7139 12.1212 33.8193C9.33334 38.5537 9.33334 44.445 9.33334 56.2275V56.7735C9.33334 68.5559 9.33334 74.4475 12.1212 79.1819C14.909 83.9162 19.9296 86.551 29.9707 91.8201L39.304 96.7178Z" fill="#0A5AA5"/>
<path opacity="0.7" d="M82.0279 21.1804L72.6945 16.2825C64.5017 11.9831 60.4053 9.83331 55.9986 9.83331C51.5919 9.83331 47.4955 11.9831 39.3025 16.2825L29.9692 21.1804C20.1516 26.3324 15.1336 28.9658 12.3093 33.5056L55.9986 56.5L99.6879 33.5056C96.8632 28.9658 91.8451 26.3324 82.0279 21.1804Z" fill="#0A5AA5"/>
<path opacity="0.5" d="M99.8788 33.8193C99.8167 33.7139 99.7537 33.6096 99.6893 33.5062L56 56.5005V103.167C60.4067 103.167 64.5031 101.018 72.6959 96.7178L82.0293 91.8201C92.0705 86.551 97.0909 83.9162 99.8788 79.1819C102.667 74.4475 102.667 68.5559 102.667 56.7735V56.2275C102.667 44.445 102.667 38.5537 99.8788 33.8193Z" fill="#0A5AA5"/>
</svg>
