<svg width="112" height="113" viewBox="0 0 112 113" fill="none" xmlns="http://www.w3.org/2000/svg">
<path d="M99.5073 18.1686L70.5012 49.1084L99.3393 71.767C102.669 66.6168 102.669 58.992 102.669 44.8344C102.669 30.9195 102.669 23.315 99.5073 18.1686Z" fill="#0A5AA5"/>
<path d="M71.2474 90.1028L65.016 77.6376C61.082 69.7682 59.115 65.8333 56 65.8333C52.885 65.8333 50.918 69.7682 46.984 77.6376L40.7527 90.1028C38.364 94.881 37.1697 97.2703 37.3514 98.7744C37.6139 100.948 39.2486 102.703 41.3972 103.119C42.8843 103.407 45.3517 102.385 50.2866 100.34C52.1122 99.5836 53.025 99.2056 53.9602 99.0119C55.3061 98.7338 56.6939 98.7338 58.0398 99.0119C58.975 99.2056 59.8878 99.5836 61.7134 100.34C66.6484 102.385 69.1157 103.407 70.6029 103.119C72.7515 102.703 74.3862 100.948 74.6485 98.7744C74.8305 97.2703 73.6358 94.881 71.2474 90.1028Z" fill="#0A5AA5"/>
<path opacity="0.5" d="M9.33333 44.8349C9.33333 44.8968 9.33333 44.9585 9.33333 45.0201C9.33338 60.2375 9.35051 67.8684 13.5705 73.0102C14.3462 73.9556 15.2128 74.8222 16.158 75.5978C17.0027 76.2908 17.9145 76.8709 18.9161 77.3558C24.0345 79.8338 31.4962 79.8338 44.3205 79.8338H44.3322H67.6657L73.9326 79.8216C77.8531 79.7946 81.1636 79.7129 84 79.4656C88.4035 79.0815 91.6636 78.2984 94.2863 76.7015L63.2221 52.2939L13.8183 16.3639C13.7347 16.4616 13.6521 16.5602 13.5705 16.6596C9.33333 21.8226 9.33333 29.4934 9.33333 44.8349Z" fill="#0A5AA5"/>
<path d="M67.6667 9.83331H44.3332C32.1244 9.83331 24.7735 9.83331 19.6784 11.9687L64.8928 44.8521L94.6008 13.164C89.4507 9.83331 81.8253 9.83331 67.6667 9.83331Z" fill="#0A5AA5"/>
</svg>
