<svg width="112" height="113" viewBox="0 0 112 113" fill="none" xmlns="http://www.w3.org/2000/svg">
<path fill-rule="evenodd" clip-rule="evenodd" d="M71.5288 35.6959H40.4712C24.7221 35.6959 16.8475 35.6959 12.4242 40.3011C8.00087 44.9063 9.04159 52.0214 11.1231 66.251L13.0969 79.7451C14.7292 90.904 15.5454 96.4835 19.7323 99.8248C23.9192 103.166 30.0944 103.166 42.4449 103.166H69.5548C81.9056 103.166 88.081 103.166 92.2679 99.8248C96.4549 96.4835 97.2706 90.904 98.903 79.7451L100.877 66.251C102.958 52.0214 103.999 44.9063 99.5759 40.3011C95.1524 35.6959 87.2779 35.6959 71.5288 35.6959ZM68.0456 74.2062C70.6515 72.5906 70.6515 68.4088 68.0456 66.7932L52.3115 57.0394C49.7789 55.4696 46.6667 57.5131 46.6667 60.7457V80.2538C46.6667 83.4864 49.7789 85.5299 52.3115 83.96L68.0456 74.2062Z" fill="#0A5AA5"/>
<path opacity="0.4" d="M39.7113 9.83341H72.2853C73.3698 9.83313 74.2019 9.83294 74.9289 9.90406C80.0987 10.4098 84.3304 13.5181 86.1247 17.705H25.8718C27.6661 13.5181 31.8976 10.4098 37.0675 9.90406C37.7946 9.83294 38.6264 9.83313 39.7113 9.83341Z" fill="#0A5AA5"/>
<path opacity="0.7" d="M29.4476 22.5391C22.958 22.5391 17.6368 26.4579 15.861 31.6567C15.824 31.7651 15.7885 31.8741 15.7546 31.9835C17.6126 31.4208 19.5463 31.0533 21.5038 30.8023C26.5455 30.1559 32.9171 30.1563 40.3186 30.1567H72.4817C79.8831 30.1563 86.2549 30.1559 91.2963 30.8023C93.254 31.0533 95.1879 31.4208 97.0457 31.9835C97.0121 31.8741 96.9761 31.7651 96.9393 31.6567C95.1636 26.4579 89.8422 22.5391 83.3527 22.5391H29.4476Z" fill="#0A5AA5"/>
</svg>
